<svg width="84" height="83" viewBox="0 0 84 83" fill="none" xmlns="http://www.w3.org/2000/svg">
<path d="M84 63C84 74.0457 75.0457 83 64 83L-7.62939e-06 83L-2.12176e-06 20C-1.15612e-06 8.95431 8.95431 1.06869e-06 20 2.03434e-06L64 5.88094e-06C75.0457 6.84658e-06 84 8.95432 84 20L84 63Z" fill="#FFDB82"/>
<path d="M41.9871 23.9167C37.3742 23.9167 33.6189 27.7063 33.6189 32.3388C33.6189 35.2694 35.1238 37.857 37.3962 39.3652C34.6516 40.2829 32.2767 41.9981 30.5349 44.242C29.5718 43.5012 28.4958 42.9055 27.3358 42.4786C29.0949 41.1727 30.2444 39.0749 30.2444 36.7171C30.2444 32.7882 27.0668 29.5719 23.1617 29.5719C19.2565 29.5719 16.0789 32.7882 16.0789 36.7171C16.0789 39.0762 17.2294 41.175 18.99 42.4809C14.3289 44.2009 11 48.7041 11 54.0038V57.7266C11.0005 58.0104 11.114 58.2823 11.3153 58.4822C11.5166 58.6825 11.7889 58.7941 12.0727 58.7932H28.4058C28.4454 58.7975 28.485 58.7998 28.5246 58.7994H55.4505C55.4901 58.7998 55.5301 58.7975 55.5692 58.7932H71.9035C72.4907 58.7908 72.9663 58.3143 72.9677 57.7266V54.0038C72.9677 48.7041 69.6445 44.2009 64.9859 42.4804C66.7464 41.175 67.8969 39.0757 67.8969 36.7166C67.8969 32.7877 64.7193 29.5714 60.8142 29.5714C56.9092 29.5714 53.7315 32.7877 53.7315 36.7166C53.7315 39.0744 54.8815 41.1725 56.6406 42.4781C55.4782 42.906 54.4016 43.5036 53.4372 44.2462C51.6962 42.001 49.3246 40.2835 46.5802 39.3652C48.852 37.857 50.3574 35.2694 50.3574 32.3388C50.3574 27.7063 46.6002 23.9167 41.9873 23.9167H41.9871ZM41.9871 26.0536C45.4371 26.0536 48.2183 28.8535 48.2183 32.3388C48.2183 35.7969 45.4804 38.5696 42.0686 38.614C42.0415 38.614 42.0147 38.6102 41.9871 38.6102C41.9594 38.6102 41.9332 38.614 41.9055 38.614C38.4937 38.5701 35.7577 35.797 35.7577 32.3388C35.7577 28.853 38.5366 26.0536 41.9866 26.0536H41.9871ZM23.1618 31.7086C25.8992 31.7086 28.1076 33.9304 28.1076 36.717C28.1076 39.4849 25.9278 41.6971 23.2161 41.7272C23.198 41.7272 23.1803 41.7252 23.1617 41.7252C23.1436 41.7252 23.126 41.7272 23.1074 41.7272C20.3957 41.6971 18.2159 39.4844 18.2159 36.717C18.2159 33.9305 20.4243 31.7086 23.1617 31.7086H23.1618ZM60.8136 31.7086C63.551 31.7086 65.7594 33.9304 65.7594 36.717C65.7594 39.4849 63.5796 41.6971 60.8679 41.7272C60.8498 41.7272 60.8321 41.7252 60.8135 41.7252C60.7954 41.7252 60.7778 41.7272 60.7592 41.7272C58.0475 41.6971 55.8677 39.4844 55.8677 36.717C55.8677 33.9305 58.0761 31.7086 60.8135 31.7086H60.8136ZM41.9053 40.7508C41.9324 40.7513 41.9592 40.7546 41.9868 40.7546C42.014 40.7546 42.0407 40.7508 42.0684 40.7508C48.9107 40.7947 54.3866 46.3177 54.3866 53.2314L54.3861 56.6619H29.5885V53.2314C29.5885 46.317 35.0629 40.7947 41.9043 40.7508H41.9053ZM23.08 43.8665C23.1072 43.867 23.1339 43.8703 23.1615 43.8703C23.1892 43.8703 23.2154 43.8665 23.2431 43.8665C25.5574 43.8851 27.6695 44.6831 29.3513 46.0181C28.1478 48.1474 27.4519 50.6052 27.4519 53.232V56.6543H13.136V54.0037C13.136 48.3848 17.5539 43.9103 23.0797 43.866L23.08 43.8665ZM60.7318 43.8665C60.7594 43.867 60.7857 43.8703 60.8133 43.8703C60.841 43.8703 60.8672 43.8665 60.8949 43.8665C66.4207 43.9104 70.8386 48.3854 70.8386 54.0042V56.6543H56.5154L56.5149 53.232C56.5149 50.6067 55.8209 48.1507 54.6198 46.0219C56.3021 44.685 58.4156 43.885 60.7319 43.8665H60.7318Z" fill="#103E13"/>
</svg>
