<svg width="85" height="85" viewBox="0 0 85 85" fill="none" xmlns="http://www.w3.org/2000/svg">
<path d="M84 75C84 80.5229 79.5228 85 74 85L-7.62939e-06 85L-2.12176e-06 22C-1.15612e-06 10.9543 8.95431 2 20 2L64 2.00001C75.0457 2.00001 84 10.9543 84 22L84 75Z" fill="#CADBFF"/>
<path d="M50.1351 41.8708C49.7087 41.8708 49.3128 41.7535 48.9611 41.565V41.57C48.9611 42.2408 48.7003 42.8709 48.2272 43.3427C47.7541 43.8158 47.1246 44.0766 46.4545 44.0766C46.0219 44.0766 45.6209 43.9564 45.2654 43.7628C45.2296 44.3766 44.9843 44.9502 44.5466 45.3883C44.0735 45.8614 43.4439 46.1222 42.7734 46.1222C41.4413 46.1222 40.3594 45.075 40.2815 43.7624C39.8693 43.9852 39.4033 44.102 38.9226 44.0712C37.6121 43.9852 36.5858 42.8529 36.5858 41.4928V30.2185L35.302 32.4426C34.8131 33.2933 33.8978 33.8215 32.9123 33.8215C32.4321 33.8215 31.9577 33.6955 31.5376 33.4547C31.0144 33.1514 30.6402 32.6646 30.4846 32.0821C30.3281 31.4993 30.4091 30.8897 30.7115 30.3673C30.712 30.3673 34.9119 23.0942 35.1682 22.6474C35.1986 22.5802 35.2854 22.3854 35.3593 22.2194C35.4298 22.0608 35.4903 21.8981 35.5482 21.7346C36.8148 18.1588 39.951 15.9375 43.7334 15.9375C48.6451 15.9375 52.6411 20.2706 52.6411 25.5967L52.6415 39.3638C52.6415 40.0338 52.3812 40.6634 51.9085 41.137C51.4354 41.6101 50.8058 41.8708 50.135 41.8708L50.1351 41.8708ZM43.7335 17.2695C40.4834 17.2695 37.893 19.1052 36.8037 22.18C36.734 22.3753 36.6614 22.5705 36.5767 22.7608C36.331 23.3119 36.331 23.3119 36.2617 23.3911L36.2525 23.3832C35.9096 24.0303 34.8908 25.7947 31.8648 31.0339C31.7405 31.2488 31.7075 31.4983 31.7709 31.7369C31.8352 31.9756 31.9891 32.1767 32.2023 32.2997C32.864 32.6798 33.7702 32.4345 34.1473 31.7774L36.6752 27.4009C36.8262 27.1401 37.1316 27.012 37.4245 27.0913C37.7157 27.1693 37.918 27.4334 37.918 27.7346V41.4932C37.918 42.1423 38.4078 42.7026 39.0099 42.7423C39.357 42.7606 39.6808 42.6442 39.924 42.4014C40.1451 42.1803 40.2669 41.8857 40.2669 41.5707V32.5725C40.2669 32.2045 40.5652 31.9062 40.9332 31.9062C41.3012 31.9062 41.5995 32.2041 41.5995 32.5725L41.5991 43.6161C41.5991 44.2636 42.126 44.7905 42.7735 44.7905C43.0881 44.7905 43.3834 44.6687 43.605 44.4475C43.8261 44.226 43.9479 43.9306 43.9479 43.616V32.5725C43.9479 32.2045 44.2458 31.9062 44.6142 31.9062C44.9822 31.9062 45.2805 32.2041 45.2805 32.5725L45.2801 41.4672V41.5707C45.2801 42.2178 45.807 42.7447 46.4549 42.7447C46.7691 42.7447 47.0636 42.6225 47.2864 42.4005C47.5075 42.1798 47.6293 41.8853 47.6293 41.5703V32.572C47.6293 32.204 47.9272 31.9057 48.2956 31.9057C48.6636 31.9057 48.9619 32.2036 48.9619 32.572L48.9611 39.3641C48.9611 40.012 49.488 40.539 50.1351 40.539C50.45 40.539 50.7446 40.4167 50.9657 40.196C51.1877 39.9741 51.3091 39.6787 51.3091 39.3641L51.3095 25.597C51.3095 21.0057 47.911 17.2696 43.7334 17.2696L43.7335 17.2695Z" fill="#103E13"/>
<path d="M23.9577 51.4393L33.626 45.6393C34.7916 44.9393 36.2915 45.2367 37.0391 46.3169C37.312 46.7103 37.4513 47.1688 37.473 47.6357C37.8335 47.4475 38.2256 47.3453 38.6249 47.3453C38.8293 47.3453 39.0346 47.3708 39.2373 47.4212C39.8869 47.5835 40.4343 47.9895 40.7785 48.5635C41.1231 49.1384 41.2237 49.8122 41.0614 50.461C40.9116 51.0614 40.5466 51.5666 40.0388 51.9133C40.3939 52.1228 40.7001 52.4085 40.9179 52.7724C41.2625 53.3473 41.363 54.0207 41.2011 54.6703C41.0389 55.319 40.6329 55.8664 40.058 56.2115L40.0547 56.2135C40.4035 56.4226 40.7043 56.7054 40.9196 57.0638C41.2646 57.6387 41.3651 58.3125 41.2028 58.962C41.0401 59.6112 40.6342 60.1586 40.0601 60.5032L28.255 67.5853C26.0518 68.9066 23.5047 69.3626 21.0841 68.8682C18.6418 68.3693 16.6191 66.9654 15.3893 64.9152C13.443 61.6714 13.7347 57.839 16.149 54.9139C16.2596 54.7804 16.3685 54.6444 16.4673 54.5034C16.5721 54.3545 16.6943 54.1792 16.736 54.1192C16.9859 53.6727 21.0637 46.3257 21.0633 46.3266C21.4751 45.5836 22.2469 45.163 23.0429 45.1634C23.4142 45.1634 23.791 45.2548 24.1385 45.4475C24.5582 45.682 24.9108 46.0237 25.1573 46.4355C25.6642 47.2803 25.6822 48.3375 25.2049 49.1931L23.9577 51.4393ZM24.0157 47.1204C23.8864 46.9047 23.7086 46.7328 23.4913 46.611C23.0419 46.3623 22.4762 46.5242 22.2288 46.9719C19.3109 52.2287 18.3163 54.0201 17.9324 54.6576L17.9412 54.6597C17.9091 54.7665 17.9091 54.7665 17.5578 55.2684C17.4384 55.4382 17.3087 55.6013 17.1764 55.7619C15.1004 58.2773 14.8593 61.4427 16.531 64.2299C17.5665 65.9563 19.2779 67.1399 21.3501 67.563C23.4449 67.9889 25.6528 67.5926 27.569 66.4428L39.3752 59.3604C39.6447 59.1989 39.835 58.9424 39.9109 58.6382C39.9868 58.3345 39.9397 58.0187 39.7778 57.7492C39.4449 57.1943 38.7219 57.012 38.167 57.3461L32.3428 60.8403C32.0274 61.0297 31.6177 60.9279 31.4287 60.612C31.2393 60.2966 31.3415 59.8874 31.6569 59.6979L37.4815 56.2038L39.3731 55.069C39.6426 54.9072 39.8333 54.6506 39.9092 54.3473C39.9852 54.0431 39.938 53.7269 39.7761 53.4578C39.4428 52.9025 38.7198 52.7219 38.1653 53.0548L30.4491 57.6837C30.1329 57.8735 29.7244 57.7709 29.535 57.4555C29.3456 57.1401 29.4483 56.7308 29.7632 56.5414L39.2334 50.8604C39.5029 50.6985 39.6931 50.4423 39.7691 50.1382C39.845 49.8344 39.7978 49.5186 39.6364 49.2491C39.4749 48.98 39.2183 48.7898 38.9142 48.7138C38.6084 48.6379 38.2938 48.6851 38.0252 48.8461L36.2721 49.8979C36.2716 49.8979 36.2716 49.8983 36.2712 49.8983H36.2708L28.5551 54.5272C28.2388 54.7174 27.8299 54.6148 27.641 54.299C27.4515 53.9836 27.5542 53.5743 27.8692 53.3849L35.5854 48.756C35.8549 48.5941 36.0455 48.3375 36.1215 48.0342C36.2049 47.7013 36.1415 47.3609 35.9437 47.0755C35.6008 46.5794 34.8673 46.4476 34.3112 46.7818L22.5136 53.8593C22.2554 54.0136 21.9245 53.9761 21.708 53.7671C21.491 53.5576 21.4422 53.2285 21.5882 52.9652L24.0414 48.5453C24.2876 48.1035 24.278 47.5578 24.0156 47.1205L24.0157 47.1204Z" fill="#103E13"/>
<path d="M70.157 64.9148C68.9275 66.9653 66.9054 68.3688 64.4626 68.8678C62.0416 69.3614 59.4954 68.9062 57.2917 67.5849L45.4855 60.5025C44.911 60.1578 44.5047 59.6105 44.342 58.9604C44.1805 58.3117 44.2815 57.6379 44.6257 57.0638C44.8405 56.705 45.1417 56.4221 45.491 56.2131L45.4876 56.211C44.9131 55.8664 44.5068 55.319 44.3449 54.6698C44.1822 54.0207 44.2832 53.3464 44.6278 52.7716C44.8497 52.4024 45.1539 52.1137 45.501 51.9088C44.997 51.5621 44.634 51.0586 44.4847 50.4611C44.322 49.8115 44.4229 49.1377 44.7675 48.5636C45.1117 47.9891 45.6595 47.5832 46.3087 47.4209C46.5115 47.37 46.7172 47.345 46.9208 47.345C47.3205 47.3454 47.7126 47.4468 48.0731 47.6354C48.0952 47.1685 48.2341 46.71 48.507 46.3165C49.255 45.2373 50.7536 44.9385 51.921 45.639L61.5889 51.4382L60.3427 49.1935C59.8646 48.3366 59.8821 47.2794 60.389 46.4342C60.636 46.0228 60.989 45.6811 61.4108 45.4445C61.7575 45.2526 62.1329 45.1617 62.5034 45.1617C63.299 45.1621 64.0717 45.5818 64.483 46.3249C65.9165 48.9078 68.6217 53.7791 68.8119 54.1192C68.8523 54.178 68.9746 54.3532 69.0793 54.5021C69.179 54.6436 69.2867 54.7787 69.3981 54.9131C71.812 57.8393 72.1032 61.6714 70.157 64.9148L70.157 64.9148ZM68.3702 55.7622C68.2375 55.6015 68.1074 55.4376 67.9889 55.2686C67.6284 54.7571 67.6192 54.7438 67.5921 54.6098C67.1707 53.9127 66.1428 52.062 63.317 46.9712C63.0692 46.5244 62.506 46.3612 62.0575 46.6091C61.8368 46.7325 61.6595 46.9049 61.5302 47.1206C61.2682 47.5574 61.2581 48.1031 61.5055 48.5462L63.9579 52.9648C64.1043 53.2285 64.0555 53.5572 63.839 53.7667C63.6229 53.9765 63.2924 54.0132 63.0329 53.8589L51.2353 46.7814C50.6792 46.448 49.9462 46.5786 49.6024 47.0751C49.4046 47.3604 49.3416 47.7009 49.4242 48.0334C49.5002 48.3371 49.6908 48.5933 49.9608 48.7552C49.9616 48.7556 49.962 48.7564 49.9628 48.7568L57.6766 53.3844C57.992 53.5739 58.0942 53.9827 57.9048 54.2985C57.7154 54.6135 57.3069 54.7166 56.9907 54.5267L47.5206 48.8457C47.2519 48.6847 46.9356 48.6371 46.6319 48.7135C46.3274 48.7894 46.0712 48.9796 45.9097 49.2496C45.7479 49.5187 45.7011 49.8345 45.7762 50.1382C45.8522 50.4419 46.0428 50.6985 46.3123 50.8604L48.1551 51.9656L55.782 56.5415C56.0974 56.7309 56.1997 57.1398 56.0102 57.4556C55.8208 57.7706 55.4124 57.8733 55.0962 57.6838L47.3808 53.0549C46.8259 52.7212 46.1033 52.9022 45.7696 53.4579C45.6077 53.7275 45.561 54.0433 45.6361 54.347C45.712 54.6507 45.9027 54.9069 46.1726 55.0692L48.0642 56.204L53.8879 59.6981C54.2033 59.8875 54.3055 60.2964 54.1161 60.6122C53.9267 60.9272 53.5183 61.0306 53.202 60.8404L47.3783 57.3463C47.1096 57.1852 46.7946 57.1377 46.4892 57.214C46.1855 57.29 45.9285 57.4802 45.7671 57.7493C45.6056 58.0188 45.5585 58.3351 45.6336 58.6384C45.7095 58.9421 45.9002 59.1983 46.1701 59.3605L57.9762 66.443C59.8921 67.5924 62.1016 67.9903 64.1951 67.5631C66.2669 67.1401 67.9784 65.9565 69.0138 64.2301C70.6872 61.4423 70.4465 58.2766 68.3709 55.7621L68.3702 55.7622Z" fill="#103E13"/>
</svg>
