<svg width="84" height="83" viewBox="0 0 84 83" fill="none" xmlns="http://www.w3.org/2000/svg">
<path d="M84 63C84 74.0457 75.0457 83 64 83L-7.62939e-06 83L-2.12176e-06 20C-1.15612e-06 8.95431 8.95431 1.06869e-06 20 2.03434e-06L64 5.88094e-06C75.0457 6.84658e-06 84 8.95432 84 20L84 63Z" fill="#FFCFCF"/>
<path d="M52.3333 38.0476L31.6666 26.2381M44.9287 22.0073L59.6906 30.4423C60.5948 30.9588 61.3464 31.7052 61.869 32.6058C62.3916 33.5064 62.6668 34.5293 62.6666 35.5706V49.3818C62.6668 50.4231 62.3916 51.4459 61.869 52.3466C61.3464 53.2472 60.5948 53.9936 59.6906 54.5101L44.9287 62.9451C44.0367 63.4546 43.0272 63.7226 42 63.7226C40.9727 63.7226 39.9632 63.4546 39.0712 62.9451L24.3093 54.5101C23.4051 53.9936 22.6536 53.2472 22.131 52.3466C21.6083 51.4459 21.3331 50.4231 21.3333 49.3818V35.5706C21.3331 34.5293 21.6083 33.5064 22.131 32.6058C22.6536 31.7052 23.4051 30.9588 24.3093 30.4423L39.0712 22.0073C39.9632 21.4978 40.9727 21.2298 42 21.2298C43.0272 21.2298 44.0367 21.4978 44.9287 22.0073Z" stroke="black" stroke-width="2" stroke-linecap="round" stroke-linejoin="round"/>
<path d="M22.8095 33.619L39.2011 42.4467C40.0614 42.9097 41.023 43.1521 42 43.1521C42.9769 43.1521 43.9386 42.9097 44.7988 42.4467L61.1905 33.619M42 43.9524V63.1429" stroke="black" stroke-width="2" stroke-linecap="round" stroke-linejoin="round"/>
</svg>
