<svg width="62" height="62" viewBox="0 0 62 62" fill="none" xmlns="http://www.w3.org/2000/svg">
<g clip-path="url(#clip0_15_3036)">
<mask id="mask0_15_3036" style="mask-type:luminance" maskUnits="userSpaceOnUse" x="0" y="0" width="62" height="62">
<path d="M62 0H0V62H62V0Z" fill="white"/>
</mask>
<g mask="url(#mask0_15_3036)">
<path d="M44.2669 34.723V39.8673C44.2669 42.2978 42.2964 44.2669 39.8673 44.2669C37.4381 44.2669 35.4676 42.2964 35.4676 39.8673C35.4676 43.8267 33.742 47.3826 31.0014 49.8245C33.357 51.9238 36.4642 53.2007 39.8687 53.2007C47.2326 53.2007 53.2021 47.2311 53.2021 39.8673C53.2021 36.4628 51.9253 33.357 49.8259 31C48.3353 32.6732 46.4285 33.9671 44.2683 34.723" fill="#FF3B3B"/>
<path d="M53.2007 22.1342C53.2007 14.7703 47.2311 8.80072 39.8673 8.80072C36.4628 8.80072 33.357 10.0776 31 12.1769C33.7406 14.6188 35.4662 18.1748 35.4662 22.1342C35.4662 19.7036 37.4367 17.7345 39.8658 17.7345C42.295 17.7345 44.2655 19.705 44.2655 22.1342V27.2784C46.4257 28.0329 48.3311 29.3282 49.8231 31.0014C51.9224 28.6445 53.1993 25.5387 53.1993 22.1342H53.2007Z" fill="#0051F9"/>
<path d="M44.2669 27.2784V34.7244C46.4271 33.9699 48.3325 32.6747 49.8245 31.0014C48.3339 29.3282 46.4271 28.0344 44.2669 27.2784Z" fill="#FF3B3B"/>
<path d="M17.7331 27.2784V22.1342C17.7331 19.7036 19.7036 17.7345 22.1327 17.7345C24.5619 17.7345 26.5324 19.705 26.5324 22.1342C26.5324 18.1748 28.2594 14.6188 30.9986 12.1769C28.6416 10.0776 25.5358 8.80072 22.1313 8.80072C14.7674 8.80072 8.79789 14.7703 8.79789 22.1342C8.79789 25.5387 10.0748 28.6445 12.1741 31.0014C13.6647 29.3282 15.5715 28.0343 17.7303 27.2784" fill="#009991"/>
<path d="M31 12.1769C28.2594 14.6188 26.5338 18.1747 26.5338 22.1341V26.6683H35.4676V22.1341C35.4676 18.1747 33.7406 14.6188 31.0014 12.1769" fill="#002AD8"/>
<path d="M26.5338 39.8673C26.5338 42.2978 24.5633 44.2669 22.1342 44.2669C19.705 44.2669 17.7345 42.2964 17.7345 39.8673V34.723C15.5743 33.9685 13.6689 32.6732 12.1769 31C10.0776 33.357 8.80072 36.4628 8.80072 39.8673C8.80072 47.2311 14.7703 53.2007 22.1342 53.2007C25.5387 53.2007 28.6445 51.9238 31.0014 49.8245C28.2608 47.3826 26.5352 43.8267 26.5352 39.8673" fill="#F7BD2D"/>
<path d="M34.723 35.4676H26.5338V39.8672C26.5338 43.8266 28.2594 47.3826 31 49.8245C33.7406 47.3826 35.4662 43.8266 35.4662 39.8672V35.4676H34.7216H34.723Z" fill="#FF6631"/>
<path d="M17.7331 34.723V27.277C15.5729 28.0315 13.6675 29.3268 12.1769 31C13.6675 32.6732 15.5743 33.9671 17.7331 34.723Z" fill="#009991"/>
</g>
</g>
<defs>
<clipPath id="clip0_15_3036">
<rect width="62" height="62" fill="white"/>
</clipPath>
</defs>
</svg>
